<svg width="21" height="20" viewBox="0 0 21 20" fill="none" xmlns="http://www.w3.org/2000/svg">
<path d="M10.5 0C4.98 0 0.5 4.48 0.5 10C0.5 15.52 4.98 20 10.5 20C16.02 20 20.5 15.52 20.5 10C20.5 4.48 16.02 0 10.5 0ZM11.91 16.09V18H9.24V16.07C7.53 15.71 6.08 14.61 5.97 12.67H7.93C8.03 13.72 8.75 14.54 10.58 14.54C12.54 14.54 12.98 13.56 12.98 12.95C12.98 12.12 12.54 11.34 10.31 10.81C7.83 10.21 6.13 9.19 6.13 7.14C6.13 5.42 7.52 4.3 9.24 3.93V2H11.91V3.95C13.77 4.4 14.7 5.81 14.76 7.34H12.8C12.75 6.23 12.16 5.47 10.58 5.47C9.08 5.47 8.18 6.15 8.18 7.11C8.18 7.95 8.83 8.5 10.85 9.02C12.87 9.54 15.03 10.41 15.03 12.93C15.02 14.76 13.65 15.76 11.91 16.09Z" fill="#45C8A1"/>
</svg>
