<svg width="12" height="12" viewBox="0 0 12 12" fill="none" xmlns="http://www.w3.org/2000/svg">
<path d="M11.8315 4.97336L11.8284 4.96086L10.0752 0.506177C9.99711 0.254614 9.7643 0.0811768 9.50023 0.0811768H2.39399C2.12836 0.0811768 1.89242 0.257739 1.81742 0.512427L0.17836 4.9218L0.173673 4.93274L0.170548 4.94524C0.150235 5.0218 0.143985 5.09993 0.154923 5.17649C0.15336 5.20149 0.151798 5.22649 0.151798 5.25149V10.9687C0.152211 11.2205 0.252432 11.4619 0.430503 11.64C0.608573 11.818 0.849969 11.9183 1.1018 11.9187H10.9018C11.4252 11.9187 11.8518 11.4921 11.8534 10.9687V5.25149C11.8534 5.23118 11.8534 5.21086 11.8518 5.19368C11.858 5.11711 11.8518 5.04368 11.8315 4.97336ZM7.20961 4.30149L7.20492 4.5468C7.19242 5.24836 6.70805 5.72024 6.00023 5.72024C5.65492 5.72024 5.35805 5.6093 5.14398 5.39836C4.92992 5.18743 4.81274 4.89368 4.80648 4.5468L4.8018 4.30149H1.58617L2.82836 1.28118H9.06586L10.3424 4.30149H7.20961ZM1.35023 5.50149H3.80805C4.18774 6.39368 4.99555 6.92024 6.0018 6.92024C6.52836 6.92024 7.01742 6.77336 7.41273 6.49524C7.75961 6.25149 8.02992 5.91086 8.20492 5.50149H10.6502V10.7187H1.35023V5.50149Z" fill="black"/>
</svg>
