<svg width="12" height="12" viewBox="0 0 12 12" fill="none" xmlns="http://www.w3.org/2000/svg">
<path d="M4.25 2.96393H5.40469V8.24987C5.40469 8.31862 5.46094 8.37487 5.52969 8.37487H6.46719C6.53594 8.37487 6.59219 8.31862 6.59219 8.24987V2.96393H7.75C7.85469 2.96393 7.9125 2.84362 7.84844 2.76237L6.09844 0.54674C6.08674 0.5318 6.0718 0.519717 6.05475 0.511407C6.03769 0.503098 6.01897 0.498779 6 0.498779C5.98103 0.498779 5.96231 0.503098 5.94525 0.511407C5.92819 0.519717 5.91326 0.5318 5.90156 0.54674L4.15156 2.7608C4.0875 2.84362 4.14531 2.96393 4.25 2.96393ZM11.7188 7.78112H10.7812C10.7125 7.78112 10.6562 7.83737 10.6562 7.90612V10.3124H1.34375V7.90612C1.34375 7.83737 1.2875 7.78112 1.21875 7.78112H0.28125C0.2125 7.78112 0.15625 7.83737 0.15625 7.90612V10.9999C0.15625 11.2764 0.379687 11.4999 0.65625 11.4999H11.3438C11.6203 11.4999 11.8438 11.2764 11.8438 10.9999V7.90612C11.8438 7.83737 11.7875 7.78112 11.7188 7.78112Z" fill="#595959"/>
</svg>
